<?xml version="1.0" encoding="utf-8"?>
<!-- Generator: Adobe Illustrator 22.1.0, SVG Export Plug-In . SVG Version: 6.00 Build 0)  -->
<svg version="1.1" xmlns="http://www.w3.org/2000/svg" xmlns:xlink="http://www.w3.org/1999/xlink" x="0px" y="0px"
	 viewBox="0 0 1920 1080" style="enable-background:new 0 0 1920 1080;" xml:space="preserve">
<style type="text/css">
	.st0{fill:url(#SVGID_1_);}
	.st1{clip-path:url(#SVGID_3_);}
	.st2{fill:url(#SVGID_4_);}
	.st3{fill:url(#SVGID_5_);}
	.st4{fill:url(#SVGID_6_);}
	.st5{fill:url(#SVGID_7_);}
	.st6{fill:url(#SVGID_8_);}
	.st7{fill:url(#SVGID_9_);}
	.st8{fill:url(#SVGID_10_);}
	.st9{fill:url(#SVGID_11_);}
	.st10{opacity:0.24;fill:#ED1459;}
	.st11{display:none;clip-path:url(#SVGID_3_);}
	.st12{display:inline;}
	.st13{fill:#FFFFFF;}
	.st14{display:none;}
	.st15{font-family:'Montserrat-Bold';}
	.st16{font-size:65.3753px;}
	.st17{letter-spacing:13;}
	.st18{font-family:'Montserrat-Medium';}
	.st19{font-size:24.9249px;}
	.st20{letter-spacing:12;}
	.st21{display:inline;fill:#FFFFFF;}
</style>
<g id="Layer_1">
	<g>
		<g>
			<linearGradient id="SVGID_1_" gradientUnits="userSpaceOnUse" x1="635.5987" y1="134.0476" x2="1501.0127" y2="1218.0011">
				<stop  offset="0" style="stop-color:#311545"/>
				<stop  offset="0.1055" style="stop-color:#3C1747"/>
				<stop  offset="0.3077" style="stop-color:#571A4C"/>
				<stop  offset="0.5858" style="stop-color:#871E54"/>
				<stop  offset="0.926" style="stop-color:#D41B5B"/>
				<stop  offset="1" style="stop-color:#ED185E"/>
			</linearGradient>
			<rect x="-105.5" y="-154" class="st0" width="2185.5" height="1457"/>
			<g>
				<defs>
					<rect id="SVGID_2_" x="-105.5" y="-154" width="2185.5" height="1457"/>
				</defs>
				<clipPath id="SVGID_3_">
					<use xlink:href="#SVGID_2_"  style="overflow:visible;"/>
				</clipPath>
				<g class="st1">
					<g>
						<linearGradient id="SVGID_4_" gradientUnits="userSpaceOnUse" x1="379.2376" y1="146.9572" x2="938.7256" y2="927.9089">
							<stop  offset="0" style="stop-color:#311545"/>
							<stop  offset="7.012253e-02" style="stop-color:#3C1747"/>
							<stop  offset="0.2046" style="stop-color:#571A4C"/>
							<stop  offset="0.3895" style="stop-color:#871E54"/>
							<stop  offset="0.6156" style="stop-color:#D41B5B"/>
							<stop  offset="0.6649" style="stop-color:#ED185E"/>
							<stop  offset="0.7334" style="stop-color:#EE265F"/>
							<stop  offset="0.825" style="stop-color:#EF3F61"/>
							<stop  offset="0.9292" style="stop-color:#F15C63"/>
							<stop  offset="1" style="stop-color:#F37065"/>
						</linearGradient>
						<path class="st2" d="M1253.2-154c0,0,124.3,381.7-265.3,442.7c-216.9,34-34.7,375.4-357.6,422.7
							c-437.1,64.1-401,478.7-735.9,279.7V-154H1253.2z"/>
						<linearGradient id="SVGID_5_" gradientUnits="userSpaceOnUse" x1="279.5738" y1="34.565" x2="834.101" y2="721.1236">
							<stop  offset="0" style="stop-color:#311545"/>
							<stop  offset="7.012253e-02" style="stop-color:#3C1747"/>
							<stop  offset="0.2046" style="stop-color:#571A4C"/>
							<stop  offset="0.3895" style="stop-color:#871E54"/>
							<stop  offset="0.6156" style="stop-color:#D41B5B"/>
							<stop  offset="0.6649" style="stop-color:#ED185E"/>
							<stop  offset="0.7334" style="stop-color:#EE265F"/>
							<stop  offset="0.825" style="stop-color:#EF3F61"/>
							<stop  offset="0.9292" style="stop-color:#F15C63"/>
							<stop  offset="1" style="stop-color:#F37065"/>
						</linearGradient>
						<path class="st3" d="M-105.5,795.9c258,98.7,500.1-19.4,649.9-214.6c172.2-224.4,4.4-397.3,355.2-376.9
							C1168.8,220.1,1174-43.3,1127.2-154H-105.5V795.9z"/>
						<linearGradient id="SVGID_6_" gradientUnits="userSpaceOnUse" x1="209.3535" y1="-84.2432" x2="544.4636" y2="419.8784">
							<stop  offset="0" style="stop-color:#311545"/>
							<stop  offset="0.1055" style="stop-color:#3C1747"/>
							<stop  offset="0.3077" style="stop-color:#571A4C"/>
							<stop  offset="0.5858" style="stop-color:#871E54"/>
							<stop  offset="0.926" style="stop-color:#D41B5B"/>
							<stop  offset="1" style="stop-color:#ED185E"/>
						</linearGradient>
						<path class="st4" d="M-105.5,653.2c75-111.7,125.9-90.3,339.6-35c227.8,59,340.6-238.9,265.2-378.8
							C423.8,99.5,540-20,767.3,93.7C992.2,206.1,1048.5-60.8,966.9-154H-105.5V653.2z"/>
						<linearGradient id="SVGID_7_" gradientUnits="userSpaceOnUse" x1="42.4164" y1="-256.2392" x2="628.8256" y2="536.3023">
							<stop  offset="0" style="stop-color:#311545"/>
							<stop  offset="7.012253e-02" style="stop-color:#3C1747"/>
							<stop  offset="0.2046" style="stop-color:#571A4C"/>
							<stop  offset="0.3895" style="stop-color:#871E54"/>
							<stop  offset="0.6156" style="stop-color:#D41B5B"/>
							<stop  offset="0.6649" style="stop-color:#ED185E"/>
							<stop  offset="0.7334" style="stop-color:#EE265F"/>
							<stop  offset="0.825" style="stop-color:#EF3F61"/>
							<stop  offset="0.9292" style="stop-color:#F15C63"/>
							<stop  offset="1" style="stop-color:#F37065"/>
						</linearGradient>
						<path class="st5" d="M-104,466.7c0,0,466.1,108.1,472.1-282.7c5.8-378.8,399.2-110.7,431.2-338h-904.8L-104,466.7z"/>
					</g>
					<g>
						<g>
							<linearGradient id="SVGID_8_" gradientUnits="userSpaceOnUse" x1="1758.4139" y1="1307.1058" x2="612.7128" y2="218.6897">
								<stop  offset="0" style="stop-color:#311545"/>
								<stop  offset="7.012253e-02" style="stop-color:#3C1747"/>
								<stop  offset="0.2046" style="stop-color:#571A4C"/>
								<stop  offset="0.3895" style="stop-color:#871E54"/>
								<stop  offset="0.6156" style="stop-color:#D41B5B"/>
								<stop  offset="0.6649" style="stop-color:#ED185E"/>
								<stop  offset="0.7334" style="stop-color:#EE265F"/>
								<stop  offset="0.825" style="stop-color:#EF3F61"/>
								<stop  offset="0.9292" style="stop-color:#F15C63"/>
								<stop  offset="1" style="stop-color:#F37065"/>
							</linearGradient>
							<path class="st6" d="M1390.9-154c0,0-177.8,148.6,32.1,370.1s177.8,539.1-72.9,591.5c-250.6,52.5-585.7-267.3-766.4,67
								c-122,225.7-457.7,346.8-689.2,142.8V1303H2080V-154H1390.9z"/>
							<linearGradient id="SVGID_9_" gradientUnits="userSpaceOnUse" x1="1913.7715" y1="1418.0964" x2="1042.4872" y2="616.7465">
								<stop  offset="0" style="stop-color:#311545"/>
								<stop  offset="7.012253e-02" style="stop-color:#3C1747"/>
								<stop  offset="0.2046" style="stop-color:#571A4C"/>
								<stop  offset="0.3895" style="stop-color:#871E54"/>
								<stop  offset="0.6156" style="stop-color:#D41B5B"/>
								<stop  offset="0.6649" style="stop-color:#ED185E"/>
								<stop  offset="0.7334" style="stop-color:#EE265F"/>
								<stop  offset="0.825" style="stop-color:#EF3F61"/>
								<stop  offset="0.9292" style="stop-color:#F15C63"/>
								<stop  offset="1" style="stop-color:#F37065"/>
							</linearGradient>
							<path class="st7" d="M2080,318.1c0,0-414.8-179.6-437.1,349.7c-14.3,338.5-231.7,361.6-644.6,259.6
								C569.8,821.5,426.4,1303,426.4,1303H2080V318.1z"/>
							<linearGradient id="SVGID_10_" gradientUnits="userSpaceOnUse" x1="1943.7246" y1="1539.6375" x2="1238.5371" y2="729.5462">
								<stop  offset="0" style="stop-color:#311545"/>
								<stop  offset="7.012253e-02" style="stop-color:#3C1747"/>
								<stop  offset="0.2046" style="stop-color:#571A4C"/>
								<stop  offset="0.3895" style="stop-color:#871E54"/>
								<stop  offset="0.6156" style="stop-color:#D41B5B"/>
								<stop  offset="0.6649" style="stop-color:#ED185E"/>
								<stop  offset="0.7334" style="stop-color:#EE265F"/>
								<stop  offset="0.825" style="stop-color:#EF3F61"/>
								<stop  offset="0.9292" style="stop-color:#F15C63"/>
								<stop  offset="1" style="stop-color:#F37065"/>
							</linearGradient>
							<path class="st8" d="M675.1,1303c0,0,15.5-208.8,247.5-247.7c215.3-36.1,535.4,201.1,637.3-40.8
								c102-241.9,356.5-42.7,338-338c-12.3-197,182-201.1,182-201.1V1303H675.1z"/>
						</g>
						<linearGradient id="SVGID_11_" gradientUnits="userSpaceOnUse" x1="2020.9054" y1="-310.7124" x2="1487.918" y2="458.8815">
							<stop  offset="0" style="stop-color:#311545"/>
							<stop  offset="7.012253e-02" style="stop-color:#3C1747"/>
							<stop  offset="0.2046" style="stop-color:#571A4C"/>
							<stop  offset="0.3895" style="stop-color:#871E54"/>
							<stop  offset="0.6156" style="stop-color:#D41B5B"/>
							<stop  offset="0.6649" style="stop-color:#ED185E"/>
							<stop  offset="0.7334" style="stop-color:#EE265F"/>
							<stop  offset="0.825" style="stop-color:#EF3F61"/>
							<stop  offset="0.9292" style="stop-color:#F15C63"/>
							<stop  offset="1" style="stop-color:#F37065"/>
						</linearGradient>
						<path class="st9" d="M1452.1-154c0,0-125.3,186.5,102,271S1991-5.4,2080,268.5V-154H1452.1z"/>
					</g>
					<g>
						<path class="st10" d="M1085-154c0,0,100.8,449.5-332.2,303.1c-172.1-58.2-333.9-14.5-326.4,262.3
							c11.3,411.4-531.9,320.5-531.9,320.5V-154H1085z"/>
						<path class="st10" d="M137.9,1303c0,0,135-396.7,441.4-258.2c377.9,170.9,277.5-151,558.4-155.6
							c199.8-3.3,268.8,265.8,518.4,221.5c247.3-43.9,14.6-542.8,423.9-457.5V1303H137.9z"/>
						<path class="st10" d="M1426.8-154c0,0-161.2,282.9,99.4,352.9C1786.8,268.8,2080,37.2,2080,37.2V-154H1426.8z"/>
					</g>
				</g>
				<g class="st11">
					<g class="st12">
						<path class="st13" d="M1147.6,363.9c0,2.8-2.3,5.1-5.1,5.1c-2.8,0-5.1-2.3-5.1-5.1c0-2.8,2.3-5.1,5.1-5.1
							C1145.3,358.8,1147.6,361.1,1147.6,363.9z"/>
						<path class="st13" d="M1177.1,363.9c0,2.8-2.3,5.1-5.1,5.1s-5.1-2.3-5.1-5.1c0-2.8,2.3-5.1,5.1-5.1S1177.1,361.1,1177.1,363.9
							z"/>
						<path class="st13" d="M1206.6,363.9c0,2.8-2.3,5.1-5.1,5.1c-2.8,0-5.1-2.3-5.1-5.1c0-2.8,2.3-5.1,5.1-5.1
							C1204.4,358.8,1206.6,361.1,1206.6,363.9z"/>
						<path class="st13" d="M1236.2,363.9c0,2.8-2.3,5.1-5.1,5.1s-5.1-2.3-5.1-5.1c0-2.8,2.3-5.1,5.1-5.1S1236.2,361.1,1236.2,363.9
							z"/>
						<path class="st13" d="M1265.7,363.9c0,2.8-2.3,5.1-5.1,5.1c-2.8,0-5.1-2.3-5.1-5.1c0-2.8,2.3-5.1,5.1-5.1
							C1263.4,358.8,1265.7,361.1,1265.7,363.9z"/>
						<path class="st13" d="M1295.3,363.9c0,2.8-2.3,5.1-5.1,5.1c-2.8,0-5.1-2.3-5.1-5.1c0-2.8,2.3-5.1,5.1-5.1
							C1293,358.8,1295.3,361.1,1295.3,363.9z"/>
						<path class="st13" d="M1324.8,363.9c0,2.8-2.3,5.1-5.1,5.1c-2.8,0-5.1-2.3-5.1-5.1c0-2.8,2.3-5.1,5.1-5.1
							C1322.5,358.8,1324.8,361.1,1324.8,363.9z"/>
					</g>
					<g class="st12">
						<circle class="st13" cx="1633.9" cy="-55" r="5.1"/>
						<circle class="st13" cx="1633.9" cy="-25.5" r="5.1"/>
						<path class="st13" d="M1633.9,9.2c-2.8,0-5.1-2.3-5.1-5.1c0-2.8,2.3-5.1,5.1-5.1c2.8,0,5.1,2.3,5.1,5.1
							C1639,6.9,1636.7,9.2,1633.9,9.2z"/>
					</g>
					<g class="st12">
						<path class="st13" d="M335.5,1163.3c-2.8,0-5.1-2.3-5.1-5.1c0-2.8,2.3-5.1,5.1-5.1c2.8,0,5.1,2.3,5.1,5.1
							C340.6,1161,338.3,1163.3,335.5,1163.3z"/>
						<path class="st13" d="M335.5,1192.8c-2.8,0-5.1-2.3-5.1-5.1c0-2.8,2.3-5.1,5.1-5.1c2.8,0,5.1,2.3,5.1,5.1
							C340.6,1190.5,338.3,1192.8,335.5,1192.8z"/>
						<path class="st13" d="M335.5,1222.3c-2.8,0-5.1-2.3-5.1-5.1c0-2.8,2.3-5.1,5.1-5.1c2.8,0,5.1,2.3,5.1,5.1
							C340.6,1220,338.3,1222.3,335.5,1222.3z"/>
					</g>
					<g class="st12">
						<path class="st13" d="M607.1,704.5c-2.8,0-5.1-2.3-5.1-5.1c0-2.8,2.3-5.1,5.1-5.1c2.8,0,5.1,2.3,5.1,5.1
							C612.2,702.2,609.9,704.5,607.1,704.5z"/>
						<path class="st13" d="M607.1,734.1c-2.8,0-5.1-2.3-5.1-5.1c0-2.8,2.3-5.1,5.1-5.1c2.8,0,5.1,2.3,5.1,5.1
							C612.2,731.8,609.9,734.1,607.1,734.1z"/>
						<path class="st13" d="M607.1,763.6c-2.8,0-5.1-2.3-5.1-5.1c0-2.8,2.3-5.1,5.1-5.1c2.8,0,5.1,2.3,5.1,5.1
							C612.2,761.3,609.9,763.6,607.1,763.6z"/>
					</g>
					<g class="st12">
						<circle class="st13" cx="1574.9" cy="563.1" r="5.1"/>
						<circle class="st13" cx="1545.4" cy="563.1" r="5.1"/>
						<circle class="st13" cx="1515.8" cy="563.1" r="5.1"/>
					</g>
					<g class="st12">
						<circle class="st13" cx="762.2" cy="151.8" r="5.1"/>
						<circle class="st13" cx="732.7" cy="151.8" r="5.1"/>
						<circle class="st13" cx="703.1" cy="151.8" r="5.1"/>
					</g>
					<g class="st12">
						<circle class="st13" cx="2037.6" cy="1149.2" r="5.1"/>
						<circle class="st13" cx="2037.6" cy="1178.7" r="5.1"/>
						<circle class="st13" cx="2037.6" cy="1208.3" r="5.1"/>
					</g>
					<g class="st12">
						<circle class="st13" cx="-63.1" cy="243.3" r="5.1"/>
						<circle class="st13" cx="-63.1" cy="272.8" r="5.1"/>
						<path class="st13" d="M-63.1,307.5c-2.8,0-5.1-2.3-5.1-5.1c0-2.8,2.3-5.1,5.1-5.1c2.8,0,5.1,2.3,5.1,5.1
							C-58,305.2-60.3,307.5-63.1,307.5z"/>
					</g>
					<g class="st12">
						<circle class="st13" cx="2032.5" cy="342.3" r="5.1"/>
						<path class="st13" d="M1997.8,342.3c0-2.8,2.3-5.1,5.1-5.1c2.8,0,5.1,2.3,5.1,5.1c0,2.8-2.3,5.1-5.1,5.1
							C2000.1,347.4,1997.8,345.1,1997.8,342.3z"/>
						<path class="st13" d="M1968.3,342.3c0-2.8,2.3-5.1,5.1-5.1c2.8,0,5.1,2.3,5.1,5.1c0,2.8-2.3,5.1-5.1,5.1
							C1970.6,347.4,1968.3,345.1,1968.3,342.3z"/>
					</g>
					<g class="st12">
						<path class="st13" d="M-4.1,894.6c0-2.8,2.3-5.1,5.1-5.1c2.8,0,5.1,2.3,5.1,5.1c0,2.8-2.3,5.1-5.1,5.1
							C-1.8,899.7-4.1,897.4-4.1,894.6z"/>
						<path class="st13" d="M-33.6,894.6c0-2.8,2.3-5.1,5.1-5.1c2.8,0,5.1,2.3,5.1,5.1c0,2.8-2.3,5.1-5.1,5.1
							C-31.3,899.7-33.6,897.4-33.6,894.6z"/>
						<circle class="st13" cx="-58" cy="894.6" r="5.1"/>
					</g>
					<g class="st12">
						<g>
							<circle class="st13" cx="853.3" cy="951.8" r="5.1"/>
							<circle class="st13" cx="882.9" cy="951.8" r="5.1"/>
							<circle class="st13" cx="912.4" cy="951.8" r="5.1"/>
							<circle class="st13" cx="941.9" cy="951.8" r="5.1"/>
							<circle class="st13" cx="971.5" cy="951.8" r="5.1"/>
							<circle class="st13" cx="1001" cy="951.8" r="5.1"/>
							<path class="st13" d="M1035.7,951.8c0,2.8-2.3,5.1-5.1,5.1c-2.8,0-5.1-2.3-5.1-5.1c0-2.8,2.3-5.1,5.1-5.1
								C1033.4,946.6,1035.7,948.9,1035.7,951.8z"/>
						</g>
						<g>
							<circle class="st13" cx="1001" cy="918.2" r="5.1"/>
							<path class="st13" d="M1035.7,918.2c0,2.8-2.3,5.1-5.1,5.1c-2.8,0-5.1-2.3-5.1-5.1c0-2.8,2.3-5.1,5.1-5.1
								C1033.4,913.1,1035.7,915.4,1035.7,918.2z"/>
							<path class="st13" d="M1065.2,918.2c0,2.8-2.3,5.1-5.1,5.1c-2.8,0-5.1-2.3-5.1-5.1c0-2.8,2.3-5.1,5.1-5.1
								C1062.9,913.1,1065.2,915.4,1065.2,918.2z"/>
							<circle class="st13" cx="1089.6" cy="918.2" r="5.1"/>
							<circle class="st13" cx="1119.1" cy="918.2" r="5.1"/>
							<circle class="st13" cx="1148.7" cy="918.2" r="5.1"/>
							<circle class="st13" cx="1178.2" cy="918.2" r="5.1"/>
						</g>
					</g>
					<g class="st12">
						<g>
							<circle class="st13" cx="187.8" cy="-68.2" r="5.1"/>
							<circle class="st13" cx="217.4" cy="-68.2" r="5.1"/>
							<circle class="st13" cx="246.9" cy="-68.2" r="5.1"/>
							<circle class="st13" cx="276.4" cy="-68.2" r="5.1"/>
							<path class="st13" d="M311.1-68.2c0,2.8-2.3,5.1-5.1,5.1c-2.8,0-5.1-2.3-5.1-5.1c0-2.8,2.3-5.1,5.1-5.1
								C308.8-73.3,311.1-71,311.1-68.2z"/>
							<path class="st13" d="M340.6-68.2c0,2.8-2.3,5.1-5.1,5.1c-2.8,0-5.1-2.3-5.1-5.1c0-2.8,2.3-5.1,5.1-5.1
								C338.3-73.3,340.6-71,340.6-68.2z"/>
							<path class="st13" d="M370.2-68.2c0,2.8-2.3,5.1-5.1,5.1c-2.8,0-5.1-2.3-5.1-5.1c0-2.8,2.3-5.1,5.1-5.1
								C367.9-73.3,370.2-71,370.2-68.2z"/>
						</g>
						<g>
							<circle class="st13" cx="187.8" cy="-34.7" r="5.1"/>
							<circle class="st13" cx="217.4" cy="-34.7" r="5.1"/>
							<circle class="st13" cx="246.9" cy="-34.7" r="5.1"/>
							<circle class="st13" cx="276.4" cy="-34.7" r="5.1"/>
							<path class="st13" d="M311.1-34.7c0,2.8-2.3,5.1-5.1,5.1c-2.8,0-5.1-2.3-5.1-5.1s2.3-5.1,5.1-5.1
								C308.8-39.8,311.1-37.5,311.1-34.7z"/>
							<path class="st13" d="M340.6-34.7c0,2.8-2.3,5.1-5.1,5.1c-2.8,0-5.1-2.3-5.1-5.1s2.3-5.1,5.1-5.1
								C338.3-39.8,340.6-37.5,340.6-34.7z"/>
							<path class="st13" d="M370.2-34.7c0,2.8-2.3,5.1-5.1,5.1c-2.8,0-5.1-2.3-5.1-5.1s2.3-5.1,5.1-5.1
								C367.9-39.8,370.2-37.5,370.2-34.7z"/>
						</g>
						<g>
							<circle class="st13" cx="187.8" cy="-1.1" r="5.1"/>
							<circle class="st13" cx="217.4" cy="-1.1" r="5.1"/>
							<circle class="st13" cx="246.9" cy="-1.1" r="5.1"/>
							<circle class="st13" cx="276.4" cy="-1.1" r="5.1"/>
							<path class="st13" d="M311.1-1.1c0,2.8-2.3,5.1-5.1,5.1c-2.8,0-5.1-2.3-5.1-5.1c0-2.8,2.3-5.1,5.1-5.1
								C308.8-6.2,311.1-3.9,311.1-1.1z"/>
							<path class="st13" d="M340.6-1.1c0,2.8-2.3,5.1-5.1,5.1c-2.8,0-5.1-2.3-5.1-5.1c0-2.8,2.3-5.1,5.1-5.1
								C338.3-6.2,340.6-3.9,340.6-1.1z"/>
							<path class="st13" d="M370.2-1.1c0,2.8-2.3,5.1-5.1,5.1c-2.8,0-5.1-2.3-5.1-5.1c0-2.8,2.3-5.1,5.1-5.1
								C367.9-6.2,370.2-3.9,370.2-1.1z"/>
						</g>
						<g>
							<circle class="st13" cx="187.8" cy="32.4" r="5.1"/>
							<circle class="st13" cx="217.4" cy="32.4" r="5.1"/>
							<circle class="st13" cx="246.9" cy="32.4" r="5.1"/>
							<circle class="st13" cx="276.4" cy="32.4" r="5.1"/>
							<path class="st13" d="M311.1,32.4c0,2.8-2.3,5.1-5.1,5.1c-2.8,0-5.1-2.3-5.1-5.1c0-2.8,2.3-5.1,5.1-5.1
								C308.8,27.3,311.1,29.6,311.1,32.4z"/>
							<path class="st13" d="M340.6,32.4c0,2.8-2.3,5.1-5.1,5.1c-2.8,0-5.1-2.3-5.1-5.1c0-2.8,2.3-5.1,5.1-5.1
								C338.3,27.3,340.6,29.6,340.6,32.4z"/>
							<path class="st13" d="M370.2,32.4c0,2.8-2.3,5.1-5.1,5.1c-2.8,0-5.1-2.3-5.1-5.1c0-2.8,2.3-5.1,5.1-5.1
								C367.9,27.3,370.2,29.6,370.2,32.4z"/>
						</g>
						<g>
							<circle class="st13" cx="187.8" cy="66" r="5.1"/>
							<circle class="st13" cx="217.4" cy="66" r="5.1"/>
							<circle class="st13" cx="246.9" cy="66" r="5.1"/>
							<circle class="st13" cx="276.4" cy="66" r="5.1"/>
							<path class="st13" d="M311.1,66c0,2.8-2.3,5.1-5.1,5.1c-2.8,0-5.1-2.3-5.1-5.1c0-2.8,2.3-5.1,5.1-5.1
								C308.8,60.9,311.1,63.2,311.1,66z"/>
							<path class="st13" d="M340.6,66c0,2.8-2.3,5.1-5.1,5.1c-2.8,0-5.1-2.3-5.1-5.1c0-2.8,2.3-5.1,5.1-5.1
								C338.3,60.9,340.6,63.2,340.6,66z"/>
							<path class="st13" d="M370.2,66c0,2.8-2.3,5.1-5.1,5.1c-2.8,0-5.1-2.3-5.1-5.1c0-2.8,2.3-5.1,5.1-5.1
								C367.9,60.9,370.2,63.2,370.2,66z"/>
						</g>
						<g>
							<circle class="st13" cx="187.8" cy="99.5" r="5.1"/>
							<circle class="st13" cx="217.4" cy="99.5" r="5.1"/>
							<circle class="st13" cx="246.9" cy="99.5" r="5.1"/>
							<circle class="st13" cx="276.4" cy="99.5" r="5.1"/>
							<path class="st13" d="M311.1,99.5c0,2.8-2.3,5.1-5.1,5.1c-2.8,0-5.1-2.3-5.1-5.1c0-2.8,2.3-5.1,5.1-5.1
								C308.8,94.4,311.1,96.7,311.1,99.5z"/>
							<path class="st13" d="M340.6,99.5c0,2.8-2.3,5.1-5.1,5.1c-2.8,0-5.1-2.3-5.1-5.1c0-2.8,2.3-5.1,5.1-5.1
								C338.3,94.4,340.6,96.7,340.6,99.5z"/>
							<path class="st13" d="M370.2,99.5c0,2.8-2.3,5.1-5.1,5.1c-2.8,0-5.1-2.3-5.1-5.1c0-2.8,2.3-5.1,5.1-5.1
								C367.9,94.4,370.2,96.7,370.2,99.5z"/>
						</g>
						<g>
							<circle class="st13" cx="187.8" cy="133.1" r="5.1"/>
							<circle class="st13" cx="217.4" cy="133.1" r="5.1"/>
							<circle class="st13" cx="246.9" cy="133.1" r="5.1"/>
							<circle class="st13" cx="276.4" cy="133.1" r="5.1"/>
							<path class="st13" d="M311.1,133.1c0,2.8-2.3,5.1-5.1,5.1c-2.8,0-5.1-2.3-5.1-5.1c0-2.8,2.3-5.1,5.1-5.1
								C308.8,128,311.1,130.3,311.1,133.1z"/>
							<path class="st13" d="M340.6,133.1c0,2.8-2.3,5.1-5.1,5.1c-2.8,0-5.1-2.3-5.1-5.1c0-2.8,2.3-5.1,5.1-5.1
								C338.3,128,340.6,130.3,340.6,133.1z"/>
							<path class="st13" d="M370.2,133.1c0,2.8-2.3,5.1-5.1,5.1c-2.8,0-5.1-2.3-5.1-5.1c0-2.8,2.3-5.1,5.1-5.1
								C367.9,128,370.2,130.3,370.2,133.1z"/>
						</g>
					</g>
					<g class="st12">
						<g>
							<circle class="st13" cx="1609.5" cy="993" r="5.1"/>
							<path class="st13" d="M1644.1,993c0,2.8-2.3,5.1-5.1,5.1c-2.8,0-5.1-2.3-5.1-5.1c0-2.8,2.3-5.1,5.1-5.1
								C1641.8,987.9,1644.1,990.2,1644.1,993z"/>
							<path class="st13" d="M1673.7,993c0,2.8-2.3,5.1-5.1,5.1c-2.8,0-5.1-2.3-5.1-5.1c0-2.8,2.3-5.1,5.1-5.1
								C1671.4,987.9,1673.7,990.2,1673.7,993z"/>
							<circle class="st13" cx="1698.1" cy="993" r="5.1"/>
							<circle class="st13" cx="1727.6" cy="993" r="5.1"/>
							<circle class="st13" cx="1757.1" cy="993" r="5.1"/>
							<circle class="st13" cx="1786.7" cy="993" r="5.1"/>
						</g>
						<g>
							<circle class="st13" cx="1609.5" cy="1026.6" r="5.1"/>
							<path class="st13" d="M1644.1,1026.6c0,2.8-2.3,5.1-5.1,5.1c-2.8,0-5.1-2.3-5.1-5.1s2.3-5.1,5.1-5.1
								C1641.8,1021.5,1644.1,1023.8,1644.1,1026.6z"/>
							<path class="st13" d="M1673.7,1026.6c0,2.8-2.3,5.1-5.1,5.1c-2.8,0-5.1-2.3-5.1-5.1s2.3-5.1,5.1-5.1
								C1671.4,1021.5,1673.7,1023.8,1673.7,1026.6z"/>
							<circle class="st13" cx="1698.1" cy="1026.6" r="5.1"/>
							<circle class="st13" cx="1727.6" cy="1026.6" r="5.1"/>
							<circle class="st13" cx="1757.1" cy="1026.6" r="5.1"/>
							<circle class="st13" cx="1786.7" cy="1026.6" r="5.1"/>
						</g>
						<g>
							<circle class="st13" cx="1609.5" cy="1060.1" r="5.1"/>
							<path class="st13" d="M1644.1,1060.1c0,2.8-2.3,5.1-5.1,5.1c-2.8,0-5.1-2.3-5.1-5.1c0-2.8,2.3-5.1,5.1-5.1
								C1641.8,1055,1644.1,1057.3,1644.1,1060.1z"/>
							<path class="st13" d="M1673.7,1060.1c0,2.8-2.3,5.1-5.1,5.1c-2.8,0-5.1-2.3-5.1-5.1c0-2.8,2.3-5.1,5.1-5.1
								C1671.4,1055,1673.7,1057.3,1673.7,1060.1z"/>
							<circle class="st13" cx="1698.1" cy="1060.1" r="5.1"/>
							<circle class="st13" cx="1727.6" cy="1060.1" r="5.1"/>
							<circle class="st13" cx="1757.1" cy="1060.1" r="5.1"/>
							<circle class="st13" cx="1786.7" cy="1060.1" r="5.1"/>
						</g>
						<g>
							<circle class="st13" cx="1609.5" cy="1093.7" r="5.1"/>
							<path class="st13" d="M1644.1,1093.7c0,2.8-2.3,5.1-5.1,5.1c-2.8,0-5.1-2.3-5.1-5.1c0-2.8,2.3-5.1,5.1-5.1
								C1641.8,1088.6,1644.1,1090.9,1644.1,1093.7z"/>
							<path class="st13" d="M1673.7,1093.7c0,2.8-2.3,5.1-5.1,5.1c-2.8,0-5.1-2.3-5.1-5.1c0-2.8,2.3-5.1,5.1-5.1
								C1671.4,1088.6,1673.7,1090.9,1673.7,1093.7z"/>
							<circle class="st13" cx="1698.1" cy="1093.7" r="5.1"/>
							<circle class="st13" cx="1727.6" cy="1093.7" r="5.1"/>
							<circle class="st13" cx="1757.1" cy="1093.7" r="5.1"/>
							<circle class="st13" cx="1786.7" cy="1093.7" r="5.1"/>
						</g>
						<g>
							<circle class="st13" cx="1609.5" cy="1127.2" r="5.1"/>
							<path class="st13" d="M1644.1,1127.2c0,2.8-2.3,5.1-5.1,5.1c-2.8,0-5.1-2.3-5.1-5.1c0-2.8,2.3-5.1,5.1-5.1
								C1641.8,1122.1,1644.1,1124.4,1644.1,1127.2z"/>
							<path class="st13" d="M1673.7,1127.2c0,2.8-2.3,5.1-5.1,5.1c-2.8,0-5.1-2.3-5.1-5.1c0-2.8,2.3-5.1,5.1-5.1
								C1671.4,1122.1,1673.7,1124.4,1673.7,1127.2z"/>
							<circle class="st13" cx="1698.1" cy="1127.2" r="5.1"/>
							<circle class="st13" cx="1727.6" cy="1127.2" r="5.1"/>
							<circle class="st13" cx="1757.1" cy="1127.2" r="5.1"/>
							<circle class="st13" cx="1786.7" cy="1127.2" r="5.1"/>
						</g>
						<g>
							<path class="st13" d="M1614.6,1160.8c0,2.8-2.3,5.1-5.1,5.1c-2.8,0-5.1-2.3-5.1-5.1c0-2.8,2.3-5.1,5.1-5.1
								C1612.3,1155.7,1614.6,1158,1614.6,1160.8z"/>
							<path class="st13" d="M1644.1,1160.8c0,2.8-2.3,5.1-5.1,5.1c-2.8,0-5.1-2.3-5.1-5.1c0-2.8,2.3-5.1,5.1-5.1
								C1641.8,1155.7,1644.1,1158,1644.1,1160.8z"/>
							<path class="st13" d="M1673.7,1160.8c0,2.8-2.3,5.1-5.1,5.1c-2.8,0-5.1-2.3-5.1-5.1c0-2.8,2.3-5.1,5.1-5.1
								C1671.4,1155.7,1673.7,1158,1673.7,1160.8z"/>
							<path class="st13" d="M1703.2,1160.8c0,2.8-2.3,5.1-5.1,5.1c-2.8,0-5.1-2.3-5.1-5.1c0-2.8,2.3-5.1,5.1-5.1
								C1700.9,1155.7,1703.2,1158,1703.2,1160.8z"/>
							<path class="st13" d="M1732.7,1160.8c0,2.8-2.3,5.1-5.1,5.1c-2.8,0-5.1-2.3-5.1-5.1c0-2.8,2.3-5.1,5.1-5.1
								C1730.4,1155.7,1732.7,1158,1732.7,1160.8z"/>
							<path class="st13" d="M1762.3,1160.8c0,2.8-2.3,5.1-5.1,5.1c-2.8,0-5.1-2.3-5.1-5.1c0-2.8,2.3-5.1,5.1-5.1
								C1760,1155.7,1762.3,1158,1762.3,1160.8z"/>
							<path class="st13" d="M1791.8,1160.8c0,2.8-2.3,5.1-5.1,5.1c-2.8,0-5.1-2.3-5.1-5.1c0-2.8,2.3-5.1,5.1-5.1
								C1789.5,1155.7,1791.8,1158,1791.8,1160.8z"/>
						</g>
						<g>
							<circle class="st13" cx="1609.5" cy="1194.3" r="5.1"/>
							<path class="st13" d="M1644.1,1194.3c0,2.8-2.3,5.1-5.1,5.1c-2.8,0-5.1-2.3-5.1-5.1c0-2.8,2.3-5.1,5.1-5.1
								C1641.8,1189.2,1644.1,1191.5,1644.1,1194.3z"/>
							<path class="st13" d="M1673.7,1194.3c0,2.8-2.3,5.1-5.1,5.1c-2.8,0-5.1-2.3-5.1-5.1c0-2.8,2.3-5.1,5.1-5.1
								C1671.4,1189.2,1673.7,1191.5,1673.7,1194.3z"/>
							<circle class="st13" cx="1698.1" cy="1194.3" r="5.1"/>
							<circle class="st13" cx="1727.6" cy="1194.3" r="5.1"/>
							<circle class="st13" cx="1757.1" cy="1194.3" r="5.1"/>
							<circle class="st13" cx="1786.7" cy="1194.3" r="5.1"/>
						</g>
					</g>
				</g>
			</g>
		</g>
		<g class="st14">
			<g class="st12">
				<text transform="matrix(1 0 0 1 792.3701 581.2988)" class="st13 st15 st16 st17">ABSTRACT</text>
				<text transform="matrix(1 0 0 1 848.6709 624.4502)" class="st13 st18 st19 st20">BACKGROUND</text>
			</g>
			<g class="st12">
				<g>
					<rect x="1223.3" y="690.8" class="st13" width="3.2" height="10.6"/>
					<rect x="1231.4" y="690.8" class="st13" width="3.2" height="10.6"/>
					<rect x="1239.6" y="690.8" class="st13" width="3.2" height="10.6"/>
					<rect x="1247.8" y="690.8" class="st13" width="3.2" height="10.6"/>
					<rect x="1255.9" y="690.8" class="st13" width="3.2" height="10.6"/>
					<rect x="1264.1" y="690.8" class="st13" width="3.2" height="10.6"/>
					<rect x="1272.3" y="690.8" class="st13" width="3.2" height="10.6"/>
					<rect x="1280.4" y="690.8" class="st13" width="3.2" height="10.6"/>
					<rect x="1288.6" y="690.8" class="st13" width="3.2" height="10.6"/>
					<rect x="1296.7" y="690.8" class="st13" width="3.2" height="10.6"/>
				</g>
				<g>
					
						<rect x="678.3" y="443.9" transform="matrix(-1.836970e-16 1 -1 -1.836970e-16 1129.0481 -230.6582)" class="st13" width="3.2" height="10.6"/>
					
						<rect x="678.3" y="452.1" transform="matrix(-1.836970e-16 1 -1 -1.836970e-16 1137.2104 -222.4958)" class="st13" width="3.2" height="10.6"/>
					
						<rect x="678.3" y="460.2" transform="matrix(-1.836970e-16 1 -1 -1.836970e-16 1145.3728 -214.3333)" class="st13" width="3.2" height="10.6"/>
					
						<rect x="678.3" y="468.4" transform="matrix(-1.836970e-16 1 -1 -1.836970e-16 1153.5353 -206.1709)" class="st13" width="3.2" height="10.6"/>
					
						<rect x="678.3" y="476.6" transform="matrix(-1.836970e-16 1 -1 -1.836970e-16 1161.6976 -198.0085)" class="st13" width="3.2" height="10.6"/>
					
						<rect x="678.3" y="484.7" transform="matrix(-1.836970e-16 1 -1 -1.836970e-16 1169.8601 -189.8461)" class="st13" width="3.2" height="10.6"/>
					
						<rect x="678.3" y="492.9" transform="matrix(-1.836970e-16 1 -1 -1.836970e-16 1178.0225 -181.6837)" class="st13" width="3.2" height="10.6"/>
					
						<rect x="678.3" y="501" transform="matrix(-1.836970e-16 1 -1 -1.836970e-16 1186.1849 -173.5213)" class="st13" width="3.2" height="10.6"/>
					
						<rect x="678.3" y="509.2" transform="matrix(-1.836970e-16 1 -1 -1.836970e-16 1194.3473 -165.3589)" class="st13" width="3.2" height="10.6"/>
					
						<rect x="678.3" y="517.4" transform="matrix(-1.836970e-16 1 -1 -1.836970e-16 1202.5096 -157.1965)" class="st13" width="3.2" height="10.6"/>
				</g>
			</g>
			<g class="st12">
				<path class="st13" d="M1339.1,736.2H635.4V412.8h703.7V736.2z M650,721.7h674.6V427.3H650V721.7z"/>
			</g>
		</g>
	</g>
</g>
<g id="Layer_2" class="st14">
	<rect class="st21" width="1920" height="1080"/>
</g>
</svg>
